<?xml version="1.0" standalone="no"?>
<!DOCTYPE svg PUBLIC "-//W3C//DTD SVG 20010904//EN"
 "http://www.w3.org/TR/2001/REC-SVG-20010904/DTD/svg10.dtd">
<svg version="1.0" xmlns="http://www.w3.org/2000/svg"
 width="700.000000pt" height="700.000000pt" viewBox="0 0 700.000000 700.000000"
 preserveAspectRatio="xMidYMid meet">
<metadata>
Created by potrace 1.11, written by Peter Selinger 2001-2013
</metadata>
<g transform="translate(0.000000,700.000000) scale(0.100000,-0.100000)"
fill="#000000" stroke="none">
<path d="M2184 5673 l-1312 -1313 390 -387 c214 -214 391 -387 395 -387 3 1
218 214 479 474 429 429 475 472 490 459 10 -8 210 -206 444 -441 l427 -427
443 443 442 444 479 -479 c264 -264 482 -479 485 -479 9 0 774 768 774 777 0
5 -591 598 -1312 1319 l-1313 1310 -1311 -1313z"/>
<path d="M5610 3662 c-1447 -1443 -2131 -2122 -2139 -2122 -7 0 -316 311
-1126 1135 -368 373 -1032 1047 -1284 1302 -229 232 -249 250 -252 225 -6 -38
-3 -2701 2 -2706 2 -2 180 -7 394 -11 215 -3 458 -8 540 -10 83 -2 170 -4 195
-4 51 -1 25 21 389 -330 112 -108 229 -220 260 -250 60 -57 392 -375 581 -557
249 -240 322 -309 330 -309 6 0 124 109 349 323 147 141 354 337 389 370 20
19 114 108 207 197 212 201 331 314 404 383 31 30 84 80 118 113 l61 60 194 4
c106 2 348 7 538 10 190 4 365 8 389 9 l45 1 0 1346 c1 740 -1 1356 -4 1370
-4 21 -69 -40 -580 -549z"/>
</g>
</svg>
